<svg width="20" height="20" viewBox="0 0 20 20" fill="none" xmlns="http://www.w3.org/2000/svg">
<path d="M19.0968 7.41927C19.0391 7.24946 18.933 7.10025 18.7915 6.99006C18.65 6.87987 18.4794 6.81353 18.3006 6.79922L13.0714 6.38371L10.8086 1.3747C10.7366 1.21337 10.6193 1.07634 10.4711 0.980156C10.3229 0.883971 10.15 0.832739 9.97332 0.832642C9.79663 0.832545 9.62368 0.883587 9.47536 0.979609C9.32703 1.07563 9.20967 1.21253 9.13742 1.37378L6.87461 6.38371L1.64546 6.79922C1.46976 6.81314 1.3018 6.87738 1.16167 6.98425C1.02153 7.09113 0.915148 7.23612 0.855252 7.40187C0.795357 7.56762 0.784483 7.74712 0.823931 7.91889C0.863378 8.09066 0.951477 8.24743 1.07769 8.37044L4.942 12.1375L3.57532 18.0555C3.53382 18.2347 3.54712 18.4221 3.61349 18.5936C3.67986 18.7651 3.79625 18.9127 3.94753 19.0172C4.09882 19.1217 4.27803 19.1783 4.4619 19.1797C4.64577 19.1811 4.82582 19.1272 4.97868 19.025L9.97303 15.6955L14.9674 19.025C15.1236 19.1288 15.3079 19.1822 15.4954 19.1781C15.6828 19.1739 15.8646 19.1125 16.0161 19.002C16.1677 18.8916 16.2817 18.7373 16.343 18.5601C16.4043 18.3828 16.4098 18.1911 16.3588 18.0106L14.6812 12.1403L18.8418 8.39612C19.1142 8.15031 19.2142 7.7669 19.0968 7.41927Z" fill="#F3CD03"/>
</svg>
